<?xml version="1.0" encoding="utf-8"?>
<!-- Generator: Adobe Illustrator 16.0.0, SVG Export Plug-In . SVG Version: 6.00 Build 0)  -->
<!DOCTYPE svg PUBLIC "-//W3C//DTD SVG 1.1//EN" "http://www.w3.org/Graphics/SVG/1.1/DTD/svg11.dtd">
<svg version="1.1" id="Layer_1" xmlns="http://www.w3.org/2000/svg" xmlns:xlink="http://www.w3.org/1999/xlink" x="0px" y="0px"
	 width="28px" height="28px" viewBox="0 0 28 28" enable-background="new 0 0 28 28" xml:space="preserve">
<g>
	<path fill="#FFFFFF" d="M10.826,4.851c3.229,0,5.855,2.625,5.855,5.856c0,3.229-2.627,5.855-5.855,5.855s-5.855-2.627-5.855-5.855
		C4.971,7.476,7.598,4.851,10.826,4.851 M10.826,1.663c-4.994,0-9.045,4.049-9.045,9.044c0,4.994,4.051,9.042,9.045,9.042
		c4.995,0,9.045-4.048,9.045-9.042C19.871,5.712,15.821,1.663,10.826,1.663L10.826,1.663z"/>
	<g>
		
			<rect x="13.561" y="19.122" transform="matrix(0.7125 0.7016 -0.7016 0.7125 20.4735 -8.5373)" fill="#FFFFFF" width="14.188" height="3.188"/>
	</g>
</g>
</svg>
